<?xml version="1.0" encoding="UTF-8"?>
<svg width="600" height="220" version="1.1" xmlns="http://www.w3.org/2000/svg">
 <path d="m39.28 59.96-14.021 10.694v83.341h14.021zm93.013 40.629v53.357h14.019v-53.357c0-28.299-14.152-42.448-39.228-42.448-12.518 0-22.599 5.735-30.519 12.876v-11.188l-14.019 10.645v83.472h14.019v-70.144c7.7867-7.1438 17.295-12.738 28.352-12.738 16.759 0 27.376 10.645 27.376 29.525zm68.907-28.57 15.389-12.057h-30.916v-36.982l-14.152 10.643v26.477l-15.392 12.054h15.392v54.773c0 18.058 11.014 28.293 26.27 28.293 6.4138 0 12.515-0.86576 18.396-2.8201v-10.917c-4.7745 0.81965-9.111 1.273-12.91 1.273-12.118 0-17.559-6.4599-17.559-23.25v-47.484h15.476zm352.76 71.33c-9.6847 0-20.963-2.6383-33.657-7.8251l-5.1741 10.778c12.646 5.7376 25.476 8.6934 38.521 8.6934 23.842 0 36.354-11.511 36.354-28.024 0-15.284-11.852-22.699-34.717-27.433-18.265-3.6372-25.606-7.6868-25.606-15.42 0-8.4168 8.5808-14.011 20.965-14.011 10.748 0 20.829 2.0927 30.117 6.3216l4.777-10.778c-11.718-4.9179-23.176-7.2796-34.454-7.2796-9.9511 0-18.135 2.3616-24.503 7.4128-6.278 5.0511-9.3748 11.373-9.3748 19.06 0 14.695 11.982 21.836 34.323 26.751 18.13 3.6398 25.87 7.6894 25.87 16.104-0.44312 8.9189-7.6535 15.65-23.442 15.65zm-83.059-72.283c10.082 0 18.399 4.3647 25.076 12.871l9.2467-8.6883c-8.7165-11.329-20.302-17.105-34.323-17.105-13.624 0-25.476 4.6439-35.294 14.282-9.6873 9.3748-14.549 20.881-14.549 34.167 0 13.281 4.9077 24.654 14.549 34.164 9.8179 9.3697 21.67 14.011 35.294 14.011 13.888 0 25.209-5.7299 34.187-17.379l-9.111-8.6858c-6.547 8.8241-14.859 13.143-25.076 13.143-9.9537 0-18.399-3.5015-25.476-10.371-6.944-7.0029-10.481-15.284-10.481-25.063 0-9.9639 3.5348-18.199 10.481-25.202 7.0772-6.6443 15.522-10.148 25.476-10.148zm-203.76 83.884c17.428 0 32.153-7.1464 40.732-18.788l-9.2442-7.6894c-7.2078 9.2339-17.023 13.739-29.011 13.739-8.5808 0-16.316-2.9584-23.171-8.6909-6.5496-5.8656-10.484-13.281-11.724-22.425h76.558l0.1332-3.7755c0-14.557-4.0675-26.477-11.987-35.437-7.9148-9.2339-18.798-13.739-32.287-13.739-13.491 0-24.636 4.6439-33.478 14.011-8.5782 9.3748-12.961 20.881-12.961 34.484 0 13.601 4.38 25.061 12.961 34.436 8.842 9.28 19.987 13.875 33.478 13.875zm-21.798-76.341c5.8375-5.7325 13.219-8.5551 21.8-8.5551 18.401 0 29.282 12.059 30.517 29.846h-62.803c1.2346-8.4194 4.6438-15.558 10.481-21.291zm116.45-6.5905 15.394-12.057h-31.052v-36.982l-14.154 10.643v26.477l-15.392 12.054h15.392v54.773c0 18.058 11.014 28.293 26.272 28.293 6.4112 0 12.518-0.86576 18.399-2.8201v-10.917c-4.777 0.81965-9.111 1.273-13.091 1.273-12.118 0-17.559-6.4599-17.559-23.25v-47.484h15.786zm41.925-12.057-14.016 10.691v83.341h14.016zm-6.9414-30.524c-4.9077 0-8.9803 3.7755-8.9803 8.8241 0 5.0511 4.0727 9.0982 8.9778 9.0982 4.7796 0 8.5808-4.047 8.5808-9.0982 0-5.046-3.8012-8.8241-8.5756-8.8241zm-367.84 171.45-6.1474-24.654h3.2709l2.8765 12.466c0.66597 3.0916 1.3729 6.1833 1.7674 8.55h0.13576c0.39446-2.5025 1.1014-5.3201 1.9006-8.55l3.2735-12.466h3.2735l2.8688 12.466c0.67109 2.9533 1.378 5.8656 1.6419 8.4143h0.13063c0.53022-2.6818 1.2397-5.4609 1.9031-8.5526l3.1403-12.466h3.1403l-6.8108 24.664h-3.2735l-3.0097-12.876c-0.66084-3.0942-1.2346-5.5941-1.501-8.007h-0.13063c-0.44726 2.7098-1.0823 5.3853-1.9006 8.007l-3.4092 12.876h-3.1377v0.13319zm26.844-26.016h3.1403v11.055h0.13575c0.53021-1.0015 1.2346-1.8186 2.1618-2.2284 0.99895-0.55839 2.1285-0.84527 3.2735-0.82478 2.3027 0 6.0193 1.4139 6.0193 7.5562v10.51h-3.1429v-10.238c0-2.774-1.1014-5.1843-3.9343-5.1843-2.0389 0-3.5399 1.4088-4.2494 3.2274-0.16649 0.50203-0.25614 1.0246-0.26382 1.5496v10.645h-3.1377zm22.341 17.784c0.12807 4.3647 2.7407 6.1884 5.8324 6.1884 2.1695 0 3.6756-0.40983 4.7796-0.95797l0.53277 2.231c-1.1065 0.54815-3.0097 1.1373-5.7043 1.1373-5.3124 0-8.4527-3.6372-8.4527-8.9624 0-5.3226 3.0122-9.508 8.0505-9.508 5.7043 0 7.0772 5.0511 7.0772 8.2811 0 0.68134 0 1.1373-0.13319 1.5471h-11.982zm9.1058-2.4077c0-1.9595-0.83758-5.1894-4.38-5.1894-3.2684 0-4.5081 2.9584-4.7745 5.1894zm7.6049-1.5471c0-2.0927 0-3.9138-0.12807-5.4609h2.7407l0.12808 3.5015h0.13575c0.79404-2.3642 2.7407-3.9113 4.7745-3.9113 0.26894 0 0.53277 0 0.79916 0.13832v3.0916c-0.26639-0.13576-0.66853-0.13576-1.1091-0.13576-2.1644 0-3.8011 1.6829-4.2443 4.0522-0.13319 0.4047-0.13319 0.99895-0.13319 1.542v9.3748h-3.1403v-12.197h0.17674zm13.934 3.9548c0.13319 4.3647 2.7407 6.1884 5.84 6.1884 2.1618 0 3.668-0.40983 4.7745-0.95797l0.53021 2.231c-1.104 0.54815-3.0046 1.1373-5.7043 1.1373-5.3098 0-8.445-3.6372-8.445-8.9624 0-5.3226 3.0046-9.508 8.048-9.508 5.7043 0 7.0746 5.0511 7.0746 8.2811 0 0.68134 0 1.1373-0.13063 1.5471h-11.987zm9.111-2.4077c0-1.9595-0.84014-5.1894-4.38-5.1894-3.2709 0-4.5081 2.9584-4.7745 5.1894zm16.188 7.277c0.97334 0.54814 2.5665 1.2756 4.2007 1.2756 2.167 0 3.276-1.1424 3.276-2.6383 0-1.5061-0.9759-2.3719-3.1403-3.2325-3.1429-1.1398-4.6413-2.9584-4.6413-5.0511 0-2.8201 2.2976-5.1843 6.0116-5.1843 1.7674 0 3.2709 0.40983 4.2007 1.1398l-0.66085 2.3616c-0.66853-0.40982-1.9057-1.1373-3.5399-1.1373-1.9006 0-2.8739 1.1398-2.8739 2.3668 0 1.4088 0.97334 2.0927 3.2709 3.0942 3.0097 1.1398 4.5107 2.6357 4.5107 5.3226 0 3.0916-2.4308 5.3226-6.4112 5.3226-1.7194 5e-3 -3.411-0.43385-4.9102-1.2756zm30.786-5.7376c0 6.5982-4.5158 9.3748-8.5833 9.3748-4.6438 0-8.3144-3.4989-8.3144-9.0982 0-5.8682 3.8037-9.3697 8.5756-9.3697 4.9154 0.13576 8.3169 3.7755 8.3169 9.0982zm-13.624 0.27663c0 3.9138 2.1644 6.8697 5.1741 6.8697 3.0046 0 5.1741-2.9559 5.1741-6.8697 0-2.9584-1.5036-6.7314-5.1741-6.7314-3.5424-0.13576-5.1741 3.3631-5.1741 6.7314zm18.527 8.8241v-15.284h-2.4334v-2.5025h2.4334v-0.81709c0-2.5025 0.53021-4.777 2.0338-6.1423 1.1516-1.0782 2.6693-1.6796 4.2468-1.6828 1.1014 0 2.0363 0.27664 2.7433 0.54815l-0.40215 2.4999c-0.39189-0.27407-1.1014-0.40983-2.0338-0.40983-2.7407 0-3.4016 2.3668-3.4016 5.1869v1.0041h4.2443v2.5h-4.2494v15.284h-3.1377v-0.18442h-0.041zm15.655-21.967v4.1802h4.5132v2.5025h-4.5081v9.5105c0 2.2284 0.53278 3.4989 2.3027 3.4989 0.79404 0 1.3678-0.13319 1.7699-0.26895l0.12807 2.5c-0.53022 0.27663-1.501 0.40982-2.7407 0.40982-1.501 0-2.6075-0.54558-3.4016-1.4088-0.79917-1.0015-1.2397-2.5025-1.2397-4.6413v-9.6437h-2.7407v-2.4999h2.7407v-3.3683l3.1864-0.77099zm10.796 4.1802 2.2976 8.965c0.39446 1.9569 0.97334 3.7755 1.2346 5.5967h0.13319c0.39958-1.8212 0.9759-3.6372 1.5087-5.5993l2.8688-9.093h2.5666l2.7407 8.8215c0.66597 2.0927 1.1065 3.9113 1.5112 5.7325h0.12807c0.26639-1.8212 0.70695-3.6372 1.3729-5.7325l2.4769-8.8241h3.1377l-5.5711 17.648h-2.8739l-2.6126-8.4143c-0.53022-1.9544-1.104-3.7755-1.501-5.8708h-0.1332c-0.39702 2.0952-0.97334 3.9164-1.5036 5.8708l-2.6997 8.4194h-2.8688l-5.1792-17.653h3.0045v0.13319zm37.678 13.468c0 1.5445 0.13063 3.0916 0.26639 4.1854h-2.8714l-0.26895-2.2284h-0.1332c-0.97334 1.4088-2.8714 2.6331-5.3124 2.6331-3.5322 0-5.3021-2.4974-5.3021-5.046 0-4.3672 3.6705-6.5957 10.348-6.5957v-0.40982c0-1.4088-0.39446-4.0496-3.9343-4.0496-1.6393 0-3.2735 0.41239-4.5132 1.273l-0.66085-2.0927c1.3678-0.95541 3.5348-1.5445 5.7043-1.5445 5.3073 0 6.547 3.6372 6.547 7.1438v6.7263h0.12807zm-3.0942-4.777c-3.4067-0.13831-7.3436 0.54815-7.3436 3.9113 0 2.0927 1.3729 3.0968 2.8739 3.0968 2.3027 0 3.6705-1.4139 4.2007-2.9584 0.13575-0.40983 0.13575-0.68134 0.13575-1.0041v-3.043h0.12807zm8.5808-3.0916c0-2.0927 0-3.9138-0.13319-5.4609h2.7407l0.1332 3.5015h0.13063c0.84271-2.3642 2.7458-3.9113 4.7796-3.9113 0.26382 0 0.53277 0 0.79404 0.13832v3.0916c-0.26127-0.13576-0.66597-0.13576-1.104-0.13576-2.1644 0-3.8037 1.6829-4.2494 4.0522-0.12807 0.4047-0.12807 0.99895-0.12807 1.542v9.3748h-3.1403v-12.197h0.17674zm13.883 3.9548c0.13319 4.3647 2.7407 6.1884 5.84 6.1884 2.167 0 3.668-0.40983 4.777-0.95797l0.52765 2.231c-1.1014 0.54815-3.0045 1.1373-5.7043 1.1373-5.3073 0-8.445-3.6372-8.445-8.9624 0-5.3226 3.0046-9.508 8.048-9.508 5.7043 0 7.0772 5.0511 7.0772 8.2811 0 0.68134 0 1.1373-0.13319 1.5471h-11.987zm9.2467-2.4077c0-1.9595-0.84527-5.1894-4.38-5.1894-3.2735 0-4.5132 2.9584-4.777 5.1894zm28.877 9.9614c-0.84015 0.40982-2.6075 0.99895-4.9077 0.99895-5.1741 0-8.5782-3.6398-8.5782-9.0956 0-5.4609 3.668-9.3722 9.2416-9.3722 1.9006 0 3.5399 0.40983 4.38 0.99895l-0.66597 2.5025c-0.66084-0.40983-1.9006-0.81965-3.6705-0.81965-3.9343 0-6.1474 3.0942-6.1474 6.734 0 4.0522 2.5614 6.5956 6.0193 6.5956 1.7674 0 3.0045-0.40983 3.7986-0.81966zm19.334-8.4194c0 6.5957-4.5132 9.3748-8.5808 9.3748-4.6413 0-8.3169-3.5014-8.3169-9.1007 0-5.8682 3.8037-9.3697 8.5808-9.3697 4.9102 0.13576 8.3169 3.7755 8.3169 9.0982zm-13.624 0.27407c0 3.9138 2.1644 6.8697 5.1741 6.8697s5.1741-2.9559 5.1741-6.8697c0-2.9584-1.501-6.7314-5.1741-6.7314-3.5373-0.13576-5.1741 3.3631-5.1741 6.7314zm18.263-4.1854c0-1.8186 0-3.3632-0.13063-4.777h2.7407l0.13576 2.9584h0.12807c0.8427-1.6828 2.8765-3.3657 5.7043-3.3657 2.4359 0 6.15 1.4114 6.15 7.5536v10.502h-3.1403v-10.23c0-2.8227-1.104-5.1869-3.9343-5.1869-2.0363 0-3.6731 1.5471-4.2468 3.3631-0.16905 0.50204-0.25614 1.0246-0.26382 1.5522v10.64h-3.1429zm32.686 12.331c-0.84015 0.40982-2.6075 0.99895-4.9077 0.99895-5.1741 0-8.5782-3.6398-8.5782-9.0956 0-5.4609 3.668-9.3722 9.2416-9.3722 1.9006 0 3.5399 0.40983 4.38 0.99895l-0.66597 2.5025c-0.66597-0.40983-1.9006-0.81965-3.6705-0.81965-3.9343 0-6.1474 3.0942-6.1474 6.734 0 4.0522 2.6126 6.5956 6.0193 6.5956 1.7648 0 3.0046-0.40983 3.7986-0.81966zm5.7094-7.5562c0.12807 4.3672 2.7407 6.191 5.84 6.191 2.1618 0 3.668-0.40983 4.7745-0.95797l0.53022 2.231c-1.104 0.54815-3.0097 1.1373-5.7043 1.1373-5.3098 0-8.4501-3.6372-8.4501-8.9624 0-5.3226 3.0097-9.508 8.048-9.508 5.7043 0 7.0798 5.0511 7.0798 8.2811 0 0.68134 0 1.1373-0.13575 1.5471h-11.977zm9.1545-2.4077c0-1.9569-0.8427-5.1869-4.38-5.1869-3.2709 0-4.5107 2.9584-4.7745 5.1894zm7.6049-1.2269c0-2.2284-0.12808-4.0522-0.12808-5.7299h2.7407l0.12807 3.0916h0.13576c1.2372-2.0927 3.2709-3.3683 6.1474-3.3683 4.2443 0 7.341 3.6372 7.341 8.9624 0 6.3267-3.8037 9.5541-7.9199 9.5541-2.2976 0-4.2443-1.0015-5.3047-2.8176h-0.13064v9.6412h-3.1403v-19.334zm3.0097 4.5952c0 0.40983 0 0.99896 0.12807 1.2705 0.53278 2.231 2.4359 3.7781 4.6439 3.7781 3.2786 0 5.1766-2.774 5.1766-6.8697 0-3.5015-1.7699-6.5956-5.1741-6.5956-2.167 0-4.2468 1.5497-4.7745 3.9138-0.15727 0.40634-0.24794 0.8353-0.26895 1.2705v3.2325zm21.626-14.692v4.1802h4.5081v2.5025h-4.5081v9.5105c0 2.2284 0.53022 3.4989 2.2976 3.4989 0.79661 0 1.3729-0.13319 1.7674-0.26895l0.13576 2.5c-0.53022 0.27663-1.5036 0.40982-2.7407 0.40982-1.285 0.0407-2.5257-0.47235-3.4067-1.4088-0.79404-1.0015-1.2397-2.5025-1.2397-4.6413v-9.6437h-2.7407v-2.4999h2.7407v-3.3683zm8.445 18.604c0.92979 0.54814 2.5665 1.2756 4.2007 1.2756 2.1695 0 3.2735-1.1424 3.2735-2.6383 0-1.5061-0.92723-2.3719-3.1377-3.2325-3.1403-1.1398-4.6438-2.9584-4.6438-5.0511 0-2.8201 2.2976-5.1843 6.0168-5.1843 1.7674 0 3.2735 0.40983 4.2007 1.1398l-0.66597 2.3616c-0.66341-0.40982-1.898-1.1373-3.5348-1.1373-1.9057 0-2.8765 1.1398-2.8765 2.3668 0 1.4088 0.97334 2.0927 3.2735 3.0942 3.0046 1.1398 4.5081 2.6357 4.5081 5.3226 0 3.0916-2.4743 5.3226-6.4112 5.3226-1.7184 5e-3 -3.4089-0.43503-4.9077-1.2756zm36.534 2.6844c-0.84527 0.40982-2.6126 0.99895-4.9102 0.99895-5.1741 0-8.5808-3.6398-8.5808-9.0956 0-5.4609 3.6705-9.3722 9.2416-9.3722 1.9031 0 3.5399 0.40983 4.38 0.99895l-0.66341 2.5025c-0.66597-0.40983-1.9031-0.81965-3.6705-0.81965-3.9369 0-6.1474 3.0942-6.1474 6.734 0 4.0522 2.6075 6.5956 6.0142 6.5956 1.7699 0 3.0046-0.40983 3.8037-0.81966zm19.326-8.4194c0 6.5957-4.5081 9.3748-8.5808 9.3748-4.6413 0-8.3118-3.5014-8.3118-9.1007 0-5.8682 3.8063-9.3697 8.5808-9.3697 5.0409 0.13576 8.3118 3.7755 8.3118 9.0982zm-13.619 0.27407c0 3.9138 2.167 6.8697 5.1741 6.8697 3.0046 0 5.1741-2.9559 5.1741-6.8697 0-2.9584-1.5036-6.7314-5.1741-6.7314-3.5348-0.13576-5.1741 3.3631-5.1741 6.7314zm18.396-4.1854c0-1.8186-0.12807-3.3632-0.12807-4.777h2.7407l0.12807 2.9584h0.13576c0.97334-1.6828 2.564-3.2274 5.4404-3.2274 2.2976 0 4.0675 1.4088 4.9102 3.4989h0.12807c0.53278-0.95541 1.2397-1.8186 1.9057-2.2259 1.104-0.81966 2.167-1.2756 3.8037-1.2756 2.2976 0 5.7043 1.5471 5.7043 7.6894v10.369h-3.0097v-9.9614c0-3.5015-1.2346-5.4558-3.6705-5.4558-1.7674 0-3.1403 1.4088-3.6705 2.9559-0.16188 0.49945-0.25076 1.0197-0.26382 1.5445v10.917h-3.0097v-10.64c0-2.7791-1.2346-4.777-3.5348-4.777-1.9006 0-3.4067 1.5471-3.8063 3.2274-0.16649 0.49948-0.25614 1.022-0.26382 1.5497v10.64h-3.0097v-13.009zm32.105 4.777c0.13576 4.3647 2.7433 6.1884 5.84 6.1884 2.167 0 3.6731-0.40983 4.7796-0.95797l0.53022 2.231c-1.1091 0.54815-3.0097 1.1373-5.7068 1.1373-5.3072 0-8.4476-3.6372-8.4476-8.9624 0-5.3226 3.0045-9.508 8.048-9.508 5.7068 0 7.0798 5.0511 7.0798 8.2811 0 0.68134 0 1.1373-0.13576 1.5471h-11.987zm9.2903-2.4077c0-1.9595-0.83759-5.1894-4.38-5.1894-3.2735 0-4.5081 2.9584-4.7745 5.1894zm28.616 6.3216c0 1.5445 0.13319 3.0916 0.26638 4.1854h-2.8739l-0.26895-2.2284c-0.97334 1.4088-2.8714 2.6331-5.3073 2.6331-3.5348 0-5.3073-2.4974-5.3073-5.046 0-4.3672 3.6705-6.5957 10.351-6.5957v-0.40982c0-1.4088-0.39702-4.0496-3.9369-4.0496-1.6393 0-3.2735 0.41239-4.5081 1.273l-0.66597-2.0927c1.3729-0.95541 3.5348-1.5445 5.7043-1.5445 5.3073 0 6.547 3.6372 6.547 7.1438v6.7263zm-3.0071-4.777c-3.4067-0.13831-7.3436 0.54815-7.3436 3.9113 0 2.0927 1.3729 3.0968 2.8765 3.0968 2.3002 0 3.6705-1.4139 4.2007-2.9584 0.1332-0.40983 0.1332-0.68134 0.1332-1.0041v-3.043zm11.716-16.921h-3.1377v25.927h3.1377zm9.2467 3.3222c0 1.1373-0.66597 1.9544-2.0338 1.9544-1.1065 0-1.9057-0.81965-1.9057-1.9544 0-1.1424 0.79916-1.9595 1.9057-1.9595 1.2372-0.1332 2.0338 0.86576 2.0338 1.9595zm-3.5373 5.046h3.1403v17.653h-3.1403zm10.218-0.13832 3.4016 9.9639c0.53277 1.6828 1.1065 3.0942 1.3729 4.6413h0.13319c0.39958-1.4088 0.97334-2.9584 1.5036-4.6438l3.4067-9.9614h3.2709l-6.8134 17.653h-3.0046l-6.5444-17.653zm17.958 9.5541c0.13319 4.3647 2.7407 6.1884 5.84 6.1884 2.167 0 3.668-0.40983 4.7745-0.95797l0.53021 2.231c-1.104 0.54815-3.0097 1.1373-5.7043 1.1373-5.3073 0-8.4501-3.6372-8.4501-8.9624 0-5.3226 3.0097-9.508 8.0531-9.508 5.7043 0 7.0746 5.0511 7.0746 8.2811 0 0.68134 0 1.1373-0.13063 1.5471h-11.987zm9.1545-2.4077c0-1.9595-0.84271-5.1894-4.38-5.1894-3.2709 0-4.5106 2.9584-4.7745 5.1894zm-544.93-151.12c4.5132-3.6398 9.5541-7.1412 13.888-10.645h-17.162c-1.898-5.5019-5.3047-16.831-5.3047-16.831s-3.5424 11.329-5.3073 16.829h-17.162c4.3365 3.504 9.5541 6.8262 13.888 10.648-1.9006 5.461-5.3073 16.695-5.3073 16.695s9.5515-6.9158 13.888-10.146a2576.7 2576.7 0 0 0 13.885 10.102s-3.4067-11.193-5.3073-16.652z" fill="#f58220"/>
</svg>
